<svg xmlns="http://www.w3.org/2000/svg" version="1.1" viewBox="18.5 92.08 78.72 33.84"><path fill="#24d15d" d="M38.76,124.768c0,0.768-0.336,1.152-1.152,1.152l-17.808,0c-0.96,0-1.296-0.24-1.296-1.296l0-30.72c0-0.768,0.336-1.2,1.104-1.2l18.096,0c0.768,0,1.008,0.288,1.008,0.816l0,0.288l-0.336,2.88c-0.096,0.864-0.624,1.008-1.632,1.008l-12.048,0l0,8.688l11.088,0c0.912,0,1.2,0.384,1.2,1.056l0,2.736c0,0.816-0.336,1.152-1.152,1.152l-11.136,0l0,9.6l12.864,0c0.816,0,1.2,0.336,1.2,1.104l0,2.736z M68.208,101.344c0,5.472-4.752,10.272-9.744,14.976c-1.68,1.584-3.36,3.12-4.752,4.464l12.72,0c0.96,0,1.392,0.288,1.392,1.2l0,2.544c0,0.912-0.384,1.392-1.392,1.392l-18.816,0c-1.152,0-1.488-0.384-1.488-1.488l0-2.304c0-0.96,0.192-1.344,0.864-2.016c2.976-3.024,6.288-5.904,8.976-8.688c3.648-3.792,5.952-6.912,5.952-9.696c0-2.976-2.112-4.416-4.944-4.416c-2.16,0-4.704,0.816-6.912,2.112c-0.24,0.144-0.48,0.24-0.72,0.24c-0.384,0-0.672-0.288-0.864-0.72l-1.104-2.4c-0.096-0.24-0.192-0.432-0.192-0.624c0-0.384,0.24-0.72,0.72-1.008c2.832-1.728,6.24-2.832,9.888-2.832c5.952,0,10.416,3.264,10.416,9.264z M97.224,124.768c0,0.768-0.336,1.152-1.152,1.152l-17.808,0c-0.96,0-1.296-0.24-1.296-1.296l0-30.72c0-0.768,0.336-1.2,1.104-1.2l18.096,0c0.768,0,1.008,0.288,1.008,0.816l0,0.288l-0.336,2.88c-0.096,0.864-0.624,1.008-1.632,1.008l-12.048,0l0,8.688l11.088,0c0.912,0,1.2,0.384,1.2,1.056l0,2.736c0,0.816-0.336,1.152-1.152,1.152l-11.136,0l0,9.6l12.864,0c0.816,0,1.2,0.336,1.2,1.104l0,2.736z"/><path fill="#" d=""/></svg>